<svg width="14" height="16" viewBox="0 0 14 16" fill="none" xmlns="http://www.w3.org/2000/svg">
<path d="M9.625 6.18774C9.625 6.06342 9.67109 5.9442 9.75314 5.85629C9.83519 5.76838 9.94647 5.71899 10.0625 5.71899H10.9375C11.0535 5.71899 11.1648 5.76838 11.2469 5.85629C11.3289 5.9442 11.375 6.06342 11.375 6.18774V7.12524C11.375 7.24956 11.3289 7.36879 11.2469 7.4567C11.1648 7.54461 11.0535 7.59399 10.9375 7.59399H10.0625C9.94647 7.59399 9.83519 7.54461 9.75314 7.4567C9.67109 7.36879 9.625 7.24956 9.625 7.12524V6.18774Z" fill="black"/>
<path d="M3.0625 0.0939941C3.17853 0.0939941 3.28981 0.14338 3.37186 0.231288C3.45391 0.319196 3.5 0.438424 3.5 0.562744V1.03149H10.5V0.562744C10.5 0.438424 10.5461 0.319196 10.6281 0.231288C10.7102 0.14338 10.8215 0.0939941 10.9375 0.0939941C11.0535 0.0939941 11.1648 0.14338 11.2469 0.231288C11.3289 0.319196 11.375 0.438424 11.375 0.562744V1.03149H12.25C12.7141 1.03149 13.1592 1.22904 13.4874 1.58067C13.8156 1.9323 14 2.40921 14 2.90649V13.219C14 13.7163 13.8156 14.1932 13.4874 14.5448C13.1592 14.8965 12.7141 15.094 12.25 15.094H1.75C1.28587 15.094 0.840752 14.8965 0.512563 14.5448C0.184374 14.1932 0 13.7163 0 13.219V2.90649C0 2.40921 0.184374 1.9323 0.512563 1.58067C0.840752 1.22904 1.28587 1.03149 1.75 1.03149H2.625V0.562744C2.625 0.438424 2.67109 0.319196 2.75314 0.231288C2.83519 0.14338 2.94647 0.0939941 3.0625 0.0939941ZM0.875 3.84399V13.219C0.875 13.4676 0.967187 13.7061 1.13128 13.8819C1.29538 14.0577 1.51794 14.1565 1.75 14.1565H12.25C12.4821 14.1565 12.7046 14.0577 12.8687 13.8819C13.0328 13.7061 13.125 13.4676 13.125 13.219V3.84399H0.875Z" fill="black"/>
</svg>
